<svg xmlns="http://www.w3.org/2000/svg" width="822" height="1178" viewBox="0 0 822 1178">
<rect x="0" y="0" width="822" height="1178" fill="#FBFBF6"/>
<rect x="0.0" y="0.0" width="150.0" height="26.0" fill="#ECE9D8" stroke="#ACA899" stroke-width="1"/>
<text x="75.0" y="13.0" font-size="12" font-family="'Microsoft JhengHei','PingFang TC','Noto Sans CJK TC','Heiti TC',sans-serif" text-anchor="middle" dominant-baseline="middle" fill="#202020">SIGNAL</text>
<text x="192.0" y="13.0" font-size="12" font-family="'Microsoft JhengHei','PingFang TC','Noto Sans CJK TC','Heiti TC',sans-serif" text-anchor="middle" dominant-baseline="middle" fill="#202020" font-weight="bold">T0</text>
<polyline points="150.0,26.0 150.0,1178.0" fill="none" stroke="#B9B9A8" stroke-width="1" stroke-dasharray="2,3"/>
<text x="276.0" y="13.0" font-size="12" font-family="'Microsoft JhengHei','PingFang TC','Noto Sans CJK TC','Heiti TC',sans-serif" text-anchor="middle" dominant-baseline="middle" fill="#202020" font-weight="bold">T1</text>
<polyline points="234.0,26.0 234.0,1178.0" fill="none" stroke="#B9B9A8" stroke-width="1" stroke-dasharray="2,3"/>
<text x="360.0" y="13.0" font-size="12" font-family="'Microsoft JhengHei','PingFang TC','Noto Sans CJK TC','Heiti TC',sans-serif" text-anchor="middle" dominant-baseline="middle" fill="#202020" font-weight="bold">T2</text>
<polyline points="318.0,26.0 318.0,1178.0" fill="none" stroke="#B9B9A8" stroke-width="1" stroke-dasharray="2,3"/>
<text x="444.0" y="13.0" font-size="12" font-family="'Microsoft JhengHei','PingFang TC','Noto Sans CJK TC','Heiti TC',sans-serif" text-anchor="middle" dominant-baseline="middle" fill="#202020" font-weight="bold">T3</text>
<polyline points="402.0,26.0 402.0,1178.0" fill="none" stroke="#B9B9A8" stroke-width="1" stroke-dasharray="2,3"/>
<text x="528.0" y="13.0" font-size="12" font-family="'Microsoft JhengHei','PingFang TC','Noto Sans CJK TC','Heiti TC',sans-serif" text-anchor="middle" dominant-baseline="middle" fill="#202020" font-weight="bold">T4</text>
<polyline points="486.0,26.0 486.0,1178.0" fill="none" stroke="#B9B9A8" stroke-width="1" stroke-dasharray="2,3"/>
<text x="612.0" y="13.0" font-size="12" font-family="'Microsoft JhengHei','PingFang TC','Noto Sans CJK TC','Heiti TC',sans-serif" text-anchor="middle" dominant-baseline="middle" fill="#202020" font-weight="bold">T5</text>
<polyline points="570.0,26.0 570.0,1178.0" fill="none" stroke="#B9B9A8" stroke-width="1" stroke-dasharray="2,3"/>
<text x="696.0" y="13.0" font-size="12" font-family="'Microsoft JhengHei','PingFang TC','Noto Sans CJK TC','Heiti TC',sans-serif" text-anchor="middle" dominant-baseline="middle" fill="#202020" font-weight="bold">T6</text>
<polyline points="654.0,26.0 654.0,1178.0" fill="none" stroke="#B9B9A8" stroke-width="1" stroke-dasharray="2,3"/>
<text x="780.0" y="13.0" font-size="12" font-family="'Microsoft JhengHei','PingFang TC','Noto Sans CJK TC','Heiti TC',sans-serif" text-anchor="middle" dominant-baseline="middle" fill="#202020" font-weight="bold">T7</text>
<polyline points="738.0,26.0 738.0,1178.0" fill="none" stroke="#B9B9A8" stroke-width="1" stroke-dasharray="2,3"/>
<polyline points="822.0,26.0 822.0,1178.0" fill="none" stroke="#B9B9A8" stroke-width="1" stroke-dasharray="2,3"/>
<polyline points="150.0,26.0 822.0,26.0" fill="none" stroke="#C8C8C8" stroke-width="1"/>
<rect x="0.0" y="26.0" width="150.0" height="64.0" fill="#FBFBF6" stroke="#C8C8C8" stroke-width="1"/>
<text x="8.0" y="58.0" font-size="12" font-family="'Microsoft JhengHei','PingFang TC','Noto Sans CJK TC','Heiti TC',sans-serif" text-anchor="start" dominant-baseline="middle" fill="#202020" font-weight="bold">CLK</text>
<polyline points="150.0,90.0 822.0,90.0" fill="none" stroke="#C8C8C8" stroke-width="1"/>
<polyline points="150.0,77.2 150.0,38.8" fill="none" stroke="#101010" stroke-width="2"/>
<polyline points="150.0,38.8 192.0,38.8" fill="none" stroke="#101010" stroke-width="2"/>
<polyline points="192.0,38.8 192.0,77.2" fill="none" stroke="#101010" stroke-width="2"/>
<polyline points="192.0,77.2 234.0,77.2" fill="none" stroke="#101010" stroke-width="2"/>
<polyline points="234.0,77.2 234.0,38.8" fill="none" stroke="#101010" stroke-width="2"/>
<polyline points="234.0,38.8 276.0,38.8" fill="none" stroke="#101010" stroke-width="2"/>
<polyline points="276.0,38.8 276.0,77.2" fill="none" stroke="#101010" stroke-width="2"/>
<polyline points="276.0,77.2 318.0,77.2" fill="none" stroke="#101010" stroke-width="2"/>
<polyline points="318.0,77.2 318.0,38.8" fill="none" stroke="#101010" stroke-width="2"/>
<polyline points="318.0,38.8 360.0,38.8" fill="none" stroke="#101010" stroke-width="2"/>
<polyline points="360.0,38.8 360.0,77.2" fill="none" stroke="#101010" stroke-width="2"/>
<polyline points="360.0,77.2 402.0,77.2" fill="none" stroke="#101010" stroke-width="2"/>
<polyline points="402.0,77.2 402.0,38.8" fill="none" stroke="#101010" stroke-width="2"/>
<polyline points="402.0,38.8 444.0,38.8" fill="none" stroke="#101010" stroke-width="2"/>
<polyline points="444.0,38.8 444.0,77.2" fill="none" stroke="#101010" stroke-width="2"/>
<polyline points="444.0,77.2 486.0,77.2" fill="none" stroke="#101010" stroke-width="2"/>
<polyline points="486.0,77.2 486.0,38.8" fill="none" stroke="#101010" stroke-width="2"/>
<polyline points="486.0,38.8 528.0,38.8" fill="none" stroke="#101010" stroke-width="2"/>
<polyline points="528.0,38.8 528.0,77.2" fill="none" stroke="#101010" stroke-width="2"/>
<polyline points="528.0,77.2 570.0,77.2" fill="none" stroke="#101010" stroke-width="2"/>
<polyline points="570.0,77.2 570.0,38.8" fill="none" stroke="#101010" stroke-width="2"/>
<polyline points="570.0,38.8 612.0,38.8" fill="none" stroke="#101010" stroke-width="2"/>
<polyline points="612.0,38.8 612.0,77.2" fill="none" stroke="#101010" stroke-width="2"/>
<polyline points="612.0,77.2 654.0,77.2" fill="none" stroke="#101010" stroke-width="2"/>
<polyline points="654.0,77.2 654.0,38.8" fill="none" stroke="#101010" stroke-width="2"/>
<polyline points="654.0,38.8 696.0,38.8" fill="none" stroke="#101010" stroke-width="2"/>
<polyline points="696.0,38.8 696.0,77.2" fill="none" stroke="#101010" stroke-width="2"/>
<polyline points="696.0,77.2 738.0,77.2" fill="none" stroke="#101010" stroke-width="2"/>
<polyline points="738.0,77.2 738.0,38.8" fill="none" stroke="#101010" stroke-width="2"/>
<polyline points="738.0,38.8 780.0,38.8" fill="none" stroke="#101010" stroke-width="2"/>
<polyline points="780.0,38.8 780.0,77.2" fill="none" stroke="#101010" stroke-width="2"/>
<polyline points="780.0,77.2 822.0,77.2" fill="none" stroke="#101010" stroke-width="2"/>
<rect x="0.0" y="90.0" width="150.0" height="64.0" fill="#ECE9D8" stroke="#ACA899" stroke-width="1"/>
<polygon points="6.8,119.2 15.6,119.2 11.2,125.6" fill="#202020" stroke="#202020"/>
<text x="21.6" y="122.0" font-size="12" font-family="'Microsoft JhengHei','PingFang TC','Noto Sans CJK TC','Heiti TC',sans-serif" text-anchor="start" dominant-baseline="middle" fill="#202020" font-weight="bold">REDIRECT</text>
<rect x="150.0" y="90.0" width="672.0" height="64.0" fill="#ECE9D8"/>
<polyline points="150.0,154.0 822.0,154.0" fill="none" stroke="#C8C8C8" stroke-width="1"/>
<rect x="0.0" y="154.0" width="150.0" height="64.0" fill="#FBFBF6" stroke="#C8C8C8" stroke-width="1"/>
<text x="24.0" y="186.0" font-size="12" font-family="'Microsoft JhengHei','PingFang TC','Noto Sans CJK TC','Heiti TC',sans-serif" text-anchor="start" dominant-baseline="middle" fill="#202020" font-weight="bold">redirect_vld</text>
<polyline points="150.0,218.0 822.0,218.0" fill="none" stroke="#C8C8C8" stroke-width="1"/>
<polyline points="150.0,205.2 234.0,205.2" fill="none" stroke="#101010" stroke-width="2"/>
<polyline points="234.0,205.2 318.0,205.2" fill="none" stroke="#101010" stroke-width="2"/>
<polyline points="318.0,205.2 334.8,166.8" fill="none" stroke="#101010" stroke-width="2"/>
<polyline points="334.8,166.8 402.0,166.8" fill="none" stroke="#101010" stroke-width="2"/>
<polyline points="402.0,166.8 418.8,205.2" fill="none" stroke="#101010" stroke-width="2"/>
<polyline points="418.8,205.2 486.0,205.2" fill="none" stroke="#101010" stroke-width="2"/>
<polyline points="486.0,205.2 570.0,205.2" fill="none" stroke="#101010" stroke-width="2"/>
<polyline points="570.0,205.2 654.0,205.2" fill="none" stroke="#101010" stroke-width="2"/>
<polyline points="654.0,205.2 738.0,205.2" fill="none" stroke="#101010" stroke-width="2"/>
<polyline points="738.0,205.2 822.0,205.2" fill="none" stroke="#101010" stroke-width="2"/>
<rect x="0.0" y="218.0" width="150.0" height="64.0" fill="#FBFBF6" stroke="#C8C8C8" stroke-width="1"/>
<text x="24.0" y="250.0" font-size="12" font-family="'Microsoft JhengHei','PingFang TC','Noto Sans CJK TC','Heiti TC',sans-serif" text-anchor="start" dominant-baseline="middle" fill="#202020" font-weight="bold">redirect_pc</text>
<polyline points="150.0,282.0 822.0,282.0" fill="none" stroke="#C8C8C8" stroke-width="1"/>
<polyline points="150.0,250.0 234.0,250.0" fill="none" stroke="#101010" stroke-width="2"/>
<polyline points="234.0,250.0 318.0,250.0" fill="none" stroke="#101010" stroke-width="2"/>
<polyline points="326.4,230.8 402.0,230.8" fill="none" stroke="#101010" stroke-width="2"/>
<polyline points="326.4,269.2 402.0,269.2" fill="none" stroke="#101010" stroke-width="2"/>
<polyline points="318.0,250.0 326.4,230.8" fill="none" stroke="#101010" stroke-width="2"/>
<polyline points="318.0,250.0 326.4,269.2" fill="none" stroke="#101010" stroke-width="2"/>
<text x="360.0" y="250.0" font-size="12" font-family="'Microsoft JhengHei','PingFang TC','Noto Sans CJK TC','Heiti TC',sans-serif" text-anchor="middle" dominant-baseline="middle" fill="#202020">Rpc</text>
<polyline points="410.4,250.0 486.0,250.0" fill="none" stroke="#101010" stroke-width="2"/>
<polyline points="402.0,230.8 410.4,250.0" fill="none" stroke="#101010" stroke-width="2"/>
<polyline points="402.0,269.2 410.4,250.0" fill="none" stroke="#101010" stroke-width="2"/>
<polyline points="486.0,250.0 570.0,250.0" fill="none" stroke="#101010" stroke-width="2"/>
<polyline points="570.0,250.0 654.0,250.0" fill="none" stroke="#101010" stroke-width="2"/>
<polyline points="654.0,250.0 738.0,250.0" fill="none" stroke="#101010" stroke-width="2"/>
<polyline points="738.0,250.0 822.0,250.0" fill="none" stroke="#101010" stroke-width="2"/>
<rect x="0.0" y="282.0" width="150.0" height="64.0" fill="#FBFBF6" stroke="#C8C8C8" stroke-width="1"/>
<text x="24.0" y="314.0" font-size="12" font-family="'Microsoft JhengHei','PingFang TC','Noto Sans CJK TC','Heiti TC',sans-serif" text-anchor="start" dominant-baseline="middle" fill="#202020" font-weight="bold">redirect_cause</text>
<polyline points="150.0,346.0 822.0,346.0" fill="none" stroke="#C8C8C8" stroke-width="1"/>
<polyline points="150.0,314.0 234.0,314.0" fill="none" stroke="#101010" stroke-width="2"/>
<polyline points="234.0,314.0 318.0,314.0" fill="none" stroke="#101010" stroke-width="2"/>
<polyline points="326.4,294.8 402.0,294.8" fill="none" stroke="#101010" stroke-width="2"/>
<polyline points="326.4,333.2 402.0,333.2" fill="none" stroke="#101010" stroke-width="2"/>
<polyline points="318.0,314.0 326.4,294.8" fill="none" stroke="#101010" stroke-width="2"/>
<polyline points="318.0,314.0 326.4,333.2" fill="none" stroke="#101010" stroke-width="2"/>
<text x="360.0" y="314.0" font-size="12" font-family="'Microsoft JhengHei','PingFang TC','Noto Sans CJK TC','Heiti TC',sans-serif" text-anchor="middle" dominant-baseline="middle" fill="#202020">MISP</text>
<polyline points="410.4,314.0 486.0,314.0" fill="none" stroke="#101010" stroke-width="2"/>
<polyline points="402.0,294.8 410.4,314.0" fill="none" stroke="#101010" stroke-width="2"/>
<polyline points="402.0,333.2 410.4,314.0" fill="none" stroke="#101010" stroke-width="2"/>
<polyline points="486.0,314.0 570.0,314.0" fill="none" stroke="#101010" stroke-width="2"/>
<polyline points="570.0,314.0 654.0,314.0" fill="none" stroke="#101010" stroke-width="2"/>
<polyline points="654.0,314.0 738.0,314.0" fill="none" stroke="#101010" stroke-width="2"/>
<polyline points="738.0,314.0 822.0,314.0" fill="none" stroke="#101010" stroke-width="2"/>
<rect x="0.0" y="346.0" width="150.0" height="64.0" fill="#FBFBF6" stroke="#C8C8C8" stroke-width="1"/>
<text x="24.0" y="378.0" font-size="12" font-family="'Microsoft JhengHei','PingFang TC','Noto Sans CJK TC','Heiti TC',sans-serif" text-anchor="start" dominant-baseline="middle" fill="#202020" font-weight="bold">redirect_ready</text>
<polyline points="150.0,410.0 822.0,410.0" fill="none" stroke="#C8C8C8" stroke-width="1"/>
<polyline points="150.0,397.2 234.0,397.2" fill="none" stroke="#101010" stroke-width="2"/>
<polyline points="234.0,397.2 318.0,397.2" fill="none" stroke="#101010" stroke-width="2"/>
<polyline points="318.0,397.2 334.8,358.8" fill="none" stroke="#101010" stroke-width="2"/>
<polyline points="334.8,358.8 402.0,358.8" fill="none" stroke="#101010" stroke-width="2"/>
<polyline points="402.0,358.8 418.8,397.2" fill="none" stroke="#101010" stroke-width="2"/>
<polyline points="418.8,397.2 486.0,397.2" fill="none" stroke="#101010" stroke-width="2"/>
<polyline points="486.0,397.2 570.0,397.2" fill="none" stroke="#101010" stroke-width="2"/>
<polyline points="570.0,397.2 654.0,397.2" fill="none" stroke="#101010" stroke-width="2"/>
<polyline points="654.0,397.2 738.0,397.2" fill="none" stroke="#101010" stroke-width="2"/>
<polyline points="738.0,397.2 822.0,397.2" fill="none" stroke="#101010" stroke-width="2"/>
<rect x="0.0" y="410.0" width="150.0" height="64.0" fill="#ECE9D8" stroke="#ACA899" stroke-width="1"/>
<polygon points="6.8,439.2 15.6,439.2 11.2,445.6" fill="#202020" stroke="#202020"/>
<text x="21.6" y="442.0" font-size="12" font-family="'Microsoft JhengHei','PingFang TC','Noto Sans CJK TC','Heiti TC',sans-serif" text-anchor="start" dominant-baseline="middle" fill="#202020" font-weight="bold">AXI-AR</text>
<rect x="150.0" y="410.0" width="672.0" height="64.0" fill="#ECE9D8"/>
<polyline points="150.0,474.0 822.0,474.0" fill="none" stroke="#C8C8C8" stroke-width="1"/>
<rect x="0.0" y="474.0" width="150.0" height="64.0" fill="#FBFBF6" stroke="#C8C8C8" stroke-width="1"/>
<text x="24.0" y="506.0" font-size="12" font-family="'Microsoft JhengHei','PingFang TC','Noto Sans CJK TC','Heiti TC',sans-serif" text-anchor="start" dominant-baseline="middle" fill="#202020" font-weight="bold">ARVALID</text>
<polyline points="150.0,538.0 822.0,538.0" fill="none" stroke="#C8C8C8" stroke-width="1"/>
<polyline points="150.0,486.8 234.0,486.8" fill="none" stroke="#101010" stroke-width="2"/>
<polyline points="234.0,486.8 318.0,486.8" fill="none" stroke="#101010" stroke-width="2"/>
<polyline points="318.0,486.8 402.0,486.8" fill="none" stroke="#101010" stroke-width="2"/>
<polyline points="402.0,486.8 486.0,486.8" fill="none" stroke="#101010" stroke-width="2"/>
<polyline points="486.0,486.8 570.0,486.8" fill="none" stroke="#101010" stroke-width="2"/>
<polyline points="570.0,486.8 654.0,486.8" fill="none" stroke="#101010" stroke-width="2"/>
<polyline points="654.0,486.8 738.0,486.8" fill="none" stroke="#101010" stroke-width="2"/>
<polyline points="738.0,486.8 822.0,486.8" fill="none" stroke="#101010" stroke-width="2"/>
<rect x="0.0" y="538.0" width="150.0" height="64.0" fill="#FBFBF6" stroke="#C8C8C8" stroke-width="1"/>
<text x="24.0" y="570.0" font-size="12" font-family="'Microsoft JhengHei','PingFang TC','Noto Sans CJK TC','Heiti TC',sans-serif" text-anchor="start" dominant-baseline="middle" fill="#202020" font-weight="bold">ARADDR</text>
<polyline points="150.0,602.0 822.0,602.0" fill="none" stroke="#C8C8C8" stroke-width="1"/>
<polyline points="158.4,550.8 234.0,550.8" fill="none" stroke="#101010" stroke-width="2"/>
<polyline points="158.4,589.2 234.0,589.2" fill="none" stroke="#101010" stroke-width="2"/>
<polyline points="150.0,570.0 158.4,550.8" fill="none" stroke="#101010" stroke-width="2"/>
<polyline points="150.0,570.0 158.4,589.2" fill="none" stroke="#101010" stroke-width="2"/>
<text x="192.0" y="570.0" font-size="12" font-family="'Microsoft JhengHei','PingFang TC','Noto Sans CJK TC','Heiti TC',sans-serif" text-anchor="middle" dominant-baseline="middle" fill="#202020">X1</text>
<polyline points="250.8,550.8 318.0,550.8" fill="none" stroke="#101010" stroke-width="2"/>
<polyline points="250.8,589.2 318.0,589.2" fill="none" stroke="#101010" stroke-width="2"/>
<polyline points="234.0,550.8 242.4,570.0" fill="none" stroke="#101010" stroke-width="2"/>
<polyline points="234.0,589.2 242.4,570.0" fill="none" stroke="#101010" stroke-width="2"/>
<polyline points="242.4,570.0 250.8,550.8" fill="none" stroke="#101010" stroke-width="2"/>
<polyline points="242.4,570.0 250.8,589.2" fill="none" stroke="#101010" stroke-width="2"/>
<text x="276.0" y="570.0" font-size="12" font-family="'Microsoft JhengHei','PingFang TC','Noto Sans CJK TC','Heiti TC',sans-serif" text-anchor="middle" dominant-baseline="middle" fill="#202020">X2</text>
<polyline points="334.8,550.8 402.0,550.8" fill="none" stroke="#101010" stroke-width="2"/>
<polyline points="334.8,589.2 402.0,589.2" fill="none" stroke="#101010" stroke-width="2"/>
<polyline points="318.0,550.8 326.4,570.0" fill="none" stroke="#101010" stroke-width="2"/>
<polyline points="318.0,589.2 326.4,570.0" fill="none" stroke="#101010" stroke-width="2"/>
<polyline points="326.4,570.0 334.8,550.8" fill="none" stroke="#101010" stroke-width="2"/>
<polyline points="326.4,570.0 334.8,589.2" fill="none" stroke="#101010" stroke-width="2"/>
<text x="360.0" y="570.0" font-size="12" font-family="'Microsoft JhengHei','PingFang TC','Noto Sans CJK TC','Heiti TC',sans-serif" text-anchor="middle" dominant-baseline="middle" fill="#202020">Rpc</text>
<polyline points="418.8,550.8 486.0,550.8" fill="none" stroke="#101010" stroke-width="2"/>
<polyline points="418.8,589.2 486.0,589.2" fill="none" stroke="#101010" stroke-width="2"/>
<polyline points="402.0,550.8 410.4,570.0" fill="none" stroke="#101010" stroke-width="2"/>
<polyline points="402.0,589.2 410.4,570.0" fill="none" stroke="#101010" stroke-width="2"/>
<polyline points="410.4,570.0 418.8,550.8" fill="none" stroke="#101010" stroke-width="2"/>
<polyline points="410.4,570.0 418.8,589.2" fill="none" stroke="#101010" stroke-width="2"/>
<text x="444.0" y="570.0" font-size="12" font-family="'Microsoft JhengHei','PingFang TC','Noto Sans CJK TC','Heiti TC',sans-serif" text-anchor="middle" dominant-baseline="middle" fill="#202020">R+4</text>
<polyline points="502.8,550.8 570.0,550.8" fill="none" stroke="#101010" stroke-width="2"/>
<polyline points="502.8,589.2 570.0,589.2" fill="none" stroke="#101010" stroke-width="2"/>
<polyline points="486.0,550.8 494.4,570.0" fill="none" stroke="#101010" stroke-width="2"/>
<polyline points="486.0,589.2 494.4,570.0" fill="none" stroke="#101010" stroke-width="2"/>
<polyline points="494.4,570.0 502.8,550.8" fill="none" stroke="#101010" stroke-width="2"/>
<polyline points="494.4,570.0 502.8,589.2" fill="none" stroke="#101010" stroke-width="2"/>
<text x="528.0" y="570.0" font-size="12" font-family="'Microsoft JhengHei','PingFang TC','Noto Sans CJK TC','Heiti TC',sans-serif" text-anchor="middle" dominant-baseline="middle" fill="#202020">R+8</text>
<polyline points="586.8,550.8 654.0,550.8" fill="none" stroke="#101010" stroke-width="2"/>
<polyline points="586.8,589.2 654.0,589.2" fill="none" stroke="#101010" stroke-width="2"/>
<polyline points="570.0,550.8 578.4,570.0" fill="none" stroke="#101010" stroke-width="2"/>
<polyline points="570.0,589.2 578.4,570.0" fill="none" stroke="#101010" stroke-width="2"/>
<polyline points="578.4,570.0 586.8,550.8" fill="none" stroke="#101010" stroke-width="2"/>
<polyline points="578.4,570.0 586.8,589.2" fill="none" stroke="#101010" stroke-width="2"/>
<text x="612.0" y="570.0" font-size="12" font-family="'Microsoft JhengHei','PingFang TC','Noto Sans CJK TC','Heiti TC',sans-serif" text-anchor="middle" dominant-baseline="middle" fill="#202020">R+12</text>
<polyline points="670.8,550.8 738.0,550.8" fill="none" stroke="#101010" stroke-width="2"/>
<polyline points="670.8,589.2 738.0,589.2" fill="none" stroke="#101010" stroke-width="2"/>
<polyline points="654.0,550.8 662.4,570.0" fill="none" stroke="#101010" stroke-width="2"/>
<polyline points="654.0,589.2 662.4,570.0" fill="none" stroke="#101010" stroke-width="2"/>
<polyline points="662.4,570.0 670.8,550.8" fill="none" stroke="#101010" stroke-width="2"/>
<polyline points="662.4,570.0 670.8,589.2" fill="none" stroke="#101010" stroke-width="2"/>
<text x="696.0" y="570.0" font-size="12" font-family="'Microsoft JhengHei','PingFang TC','Noto Sans CJK TC','Heiti TC',sans-serif" text-anchor="middle" dominant-baseline="middle" fill="#202020">R+16</text>
<polyline points="754.8,550.8 813.6,550.8" fill="none" stroke="#101010" stroke-width="2"/>
<polyline points="754.8,589.2 813.6,589.2" fill="none" stroke="#101010" stroke-width="2"/>
<polyline points="738.0,550.8 746.4,570.0" fill="none" stroke="#101010" stroke-width="2"/>
<polyline points="738.0,589.2 746.4,570.0" fill="none" stroke="#101010" stroke-width="2"/>
<polyline points="746.4,570.0 754.8,550.8" fill="none" stroke="#101010" stroke-width="2"/>
<polyline points="746.4,570.0 754.8,589.2" fill="none" stroke="#101010" stroke-width="2"/>
<polyline points="813.6,550.8 822.0,570.0" fill="none" stroke="#101010" stroke-width="2"/>
<polyline points="813.6,589.2 822.0,570.0" fill="none" stroke="#101010" stroke-width="2"/>
<text x="780.0" y="570.0" font-size="12" font-family="'Microsoft JhengHei','PingFang TC','Noto Sans CJK TC','Heiti TC',sans-serif" text-anchor="middle" dominant-baseline="middle" fill="#202020">R+20</text>
<rect x="0.0" y="602.0" width="150.0" height="64.0" fill="#FBFBF6" stroke="#C8C8C8" stroke-width="1"/>
<text x="24.0" y="634.0" font-size="12" font-family="'Microsoft JhengHei','PingFang TC','Noto Sans CJK TC','Heiti TC',sans-serif" text-anchor="start" dominant-baseline="middle" fill="#202020" font-weight="bold">ARREADY</text>
<polyline points="150.0,666.0 822.0,666.0" fill="none" stroke="#C8C8C8" stroke-width="1"/>
<polyline points="150.0,614.8 234.0,614.8" fill="none" stroke="#101010" stroke-width="2"/>
<polyline points="234.0,614.8 318.0,614.8" fill="none" stroke="#101010" stroke-width="2"/>
<polyline points="318.0,614.8 402.0,614.8" fill="none" stroke="#101010" stroke-width="2"/>
<polyline points="402.0,614.8 486.0,614.8" fill="none" stroke="#101010" stroke-width="2"/>
<polyline points="486.0,614.8 570.0,614.8" fill="none" stroke="#101010" stroke-width="2"/>
<polyline points="570.0,614.8 654.0,614.8" fill="none" stroke="#101010" stroke-width="2"/>
<polyline points="654.0,614.8 738.0,614.8" fill="none" stroke="#101010" stroke-width="2"/>
<polyline points="738.0,614.8 822.0,614.8" fill="none" stroke="#101010" stroke-width="2"/>
<rect x="0.0" y="666.0" width="150.0" height="64.0" fill="#ECE9D8" stroke="#ACA899" stroke-width="1"/>
<polygon points="6.8,695.2 15.6,695.2 11.2,701.6" fill="#202020" stroke="#202020"/>
<text x="21.6" y="698.0" font-size="12" font-family="'Microsoft JhengHei','PingFang TC','Noto Sans CJK TC','Heiti TC',sans-serif" text-anchor="start" dominant-baseline="middle" fill="#202020" font-weight="bold">AXI-R</text>
<rect x="150.0" y="666.0" width="672.0" height="64.0" fill="#ECE9D8"/>
<polyline points="150.0,730.0 822.0,730.0" fill="none" stroke="#C8C8C8" stroke-width="1"/>
<rect x="0.0" y="730.0" width="150.0" height="64.0" fill="#FBFBF6" stroke="#C8C8C8" stroke-width="1"/>
<text x="24.0" y="762.0" font-size="12" font-family="'Microsoft JhengHei','PingFang TC','Noto Sans CJK TC','Heiti TC',sans-serif" text-anchor="start" dominant-baseline="middle" fill="#202020" font-weight="bold">RVALID</text>
<polyline points="150.0,794.0 822.0,794.0" fill="none" stroke="#C8C8C8" stroke-width="1"/>
<polyline points="150.0,781.2 234.0,781.2" fill="none" stroke="#101010" stroke-width="2"/>
<polyline points="234.0,781.2 250.8,742.8" fill="none" stroke="#101010" stroke-width="2"/>
<polyline points="250.8,742.8 318.0,742.8" fill="none" stroke="#101010" stroke-width="2"/>
<polyline points="318.0,742.8 402.0,742.8" fill="none" stroke="#101010" stroke-width="2"/>
<polyline points="402.0,742.8 486.0,742.8" fill="none" stroke="#101010" stroke-width="2"/>
<polyline points="486.0,742.8 570.0,742.8" fill="none" stroke="#101010" stroke-width="2"/>
<polyline points="570.0,742.8 654.0,742.8" fill="none" stroke="#101010" stroke-width="2"/>
<polyline points="654.0,742.8 738.0,742.8" fill="none" stroke="#101010" stroke-width="2"/>
<polyline points="738.0,742.8 822.0,742.8" fill="none" stroke="#101010" stroke-width="2"/>
<rect x="0.0" y="794.0" width="150.0" height="64.0" fill="#FBFBF6" stroke="#C8C8C8" stroke-width="1"/>
<text x="24.0" y="826.0" font-size="12" font-family="'Microsoft JhengHei','PingFang TC','Noto Sans CJK TC','Heiti TC',sans-serif" text-anchor="start" dominant-baseline="middle" fill="#202020" font-weight="bold">RDATA</text>
<polyline points="150.0,858.0 822.0,858.0" fill="none" stroke="#C8C8C8" stroke-width="1"/>
<polygon points="150.0,826.0 158.4,806.8 234.0,806.8 234.0,845.2 158.4,845.2" fill="#E79B9B"/>
<polyline points="158.4,838.2 165.4,845.2" fill="none" stroke="#A83232" stroke-width="1"/>
<polyline points="158.4,831.2 172.4,845.2" fill="none" stroke="#A83232" stroke-width="1"/>
<polyline points="158.4,824.2 179.4,845.2" fill="none" stroke="#A83232" stroke-width="1"/>
<polyline points="158.4,817.2 186.4,845.2" fill="none" stroke="#A83232" stroke-width="1"/>
<polyline points="158.4,810.2 193.4,845.2" fill="none" stroke="#A83232" stroke-width="1"/>
<polyline points="162.0,806.8 200.4,845.2" fill="none" stroke="#A83232" stroke-width="1"/>
<polyline points="169.0,806.8 207.4,845.2" fill="none" stroke="#A83232" stroke-width="1"/>
<polyline points="176.0,806.8 214.4,845.2" fill="none" stroke="#A83232" stroke-width="1"/>
<polyline points="183.0,806.8 221.4,845.2" fill="none" stroke="#A83232" stroke-width="1"/>
<polyline points="190.0,806.8 228.4,845.2" fill="none" stroke="#A83232" stroke-width="1"/>
<polyline points="197.0,806.8 234.0,843.8" fill="none" stroke="#A83232" stroke-width="1"/>
<polyline points="204.0,806.8 234.0,836.8" fill="none" stroke="#A83232" stroke-width="1"/>
<polyline points="211.0,806.8 234.0,829.8" fill="none" stroke="#A83232" stroke-width="1"/>
<polyline points="218.0,806.8 234.0,822.8" fill="none" stroke="#A83232" stroke-width="1"/>
<polyline points="225.0,806.8 234.0,815.8" fill="none" stroke="#A83232" stroke-width="1"/>
<polyline points="232.0,806.8 234.0,808.8" fill="none" stroke="#A83232" stroke-width="1"/>
<polyline points="158.4,806.8 234.0,806.8" fill="none" stroke="#101010" stroke-width="2"/>
<polyline points="158.4,845.2 234.0,845.2" fill="none" stroke="#101010" stroke-width="2"/>
<polyline points="150.0,826.0 158.4,806.8" fill="none" stroke="#101010" stroke-width="2"/>
<polyline points="150.0,826.0 158.4,845.2" fill="none" stroke="#101010" stroke-width="2"/>
<polyline points="250.8,806.8 318.0,806.8" fill="none" stroke="#101010" stroke-width="2"/>
<polyline points="250.8,845.2 318.0,845.2" fill="none" stroke="#101010" stroke-width="2"/>
<polyline points="234.0,806.8 242.4,826.0" fill="none" stroke="#101010" stroke-width="2"/>
<polyline points="234.0,845.2 242.4,826.0" fill="none" stroke="#101010" stroke-width="2"/>
<polyline points="242.4,826.0 250.8,806.8" fill="none" stroke="#101010" stroke-width="2"/>
<polyline points="242.4,826.0 250.8,845.2" fill="none" stroke="#101010" stroke-width="2"/>
<text x="276.0" y="826.0" font-size="12" font-family="'Microsoft JhengHei','PingFang TC','Noto Sans CJK TC','Heiti TC',sans-serif" text-anchor="middle" dominant-baseline="middle" fill="#202020">I(X1)</text>
<polyline points="334.8,806.8 402.0,806.8" fill="none" stroke="#101010" stroke-width="2"/>
<polyline points="334.8,845.2 402.0,845.2" fill="none" stroke="#101010" stroke-width="2"/>
<polyline points="318.0,806.8 326.4,826.0" fill="none" stroke="#101010" stroke-width="2"/>
<polyline points="318.0,845.2 326.4,826.0" fill="none" stroke="#101010" stroke-width="2"/>
<polyline points="326.4,826.0 334.8,806.8" fill="none" stroke="#101010" stroke-width="2"/>
<polyline points="326.4,826.0 334.8,845.2" fill="none" stroke="#101010" stroke-width="2"/>
<text x="360.0" y="826.0" font-size="12" font-family="'Microsoft JhengHei','PingFang TC','Noto Sans CJK TC','Heiti TC',sans-serif" text-anchor="middle" dominant-baseline="middle" fill="#202020">I(X2)</text>
<polyline points="418.8,806.8 486.0,806.8" fill="none" stroke="#101010" stroke-width="2"/>
<polyline points="418.8,845.2 486.0,845.2" fill="none" stroke="#101010" stroke-width="2"/>
<polyline points="402.0,806.8 410.4,826.0" fill="none" stroke="#101010" stroke-width="2"/>
<polyline points="402.0,845.2 410.4,826.0" fill="none" stroke="#101010" stroke-width="2"/>
<polyline points="410.4,826.0 418.8,806.8" fill="none" stroke="#101010" stroke-width="2"/>
<polyline points="410.4,826.0 418.8,845.2" fill="none" stroke="#101010" stroke-width="2"/>
<text x="444.0" y="826.0" font-size="12" font-family="'Microsoft JhengHei','PingFang TC','Noto Sans CJK TC','Heiti TC',sans-serif" text-anchor="middle" dominant-baseline="middle" fill="#202020">I(R)</text>
<polyline points="502.8,806.8 570.0,806.8" fill="none" stroke="#101010" stroke-width="2"/>
<polyline points="502.8,845.2 570.0,845.2" fill="none" stroke="#101010" stroke-width="2"/>
<polyline points="486.0,806.8 494.4,826.0" fill="none" stroke="#101010" stroke-width="2"/>
<polyline points="486.0,845.2 494.4,826.0" fill="none" stroke="#101010" stroke-width="2"/>
<polyline points="494.4,826.0 502.8,806.8" fill="none" stroke="#101010" stroke-width="2"/>
<polyline points="494.4,826.0 502.8,845.2" fill="none" stroke="#101010" stroke-width="2"/>
<text x="528.0" y="826.0" font-size="12" font-family="'Microsoft JhengHei','PingFang TC','Noto Sans CJK TC','Heiti TC',sans-serif" text-anchor="middle" dominant-baseline="middle" fill="#202020">I(R+4)</text>
<polyline points="586.8,806.8 654.0,806.8" fill="none" stroke="#101010" stroke-width="2"/>
<polyline points="586.8,845.2 654.0,845.2" fill="none" stroke="#101010" stroke-width="2"/>
<polyline points="570.0,806.8 578.4,826.0" fill="none" stroke="#101010" stroke-width="2"/>
<polyline points="570.0,845.2 578.4,826.0" fill="none" stroke="#101010" stroke-width="2"/>
<polyline points="578.4,826.0 586.8,806.8" fill="none" stroke="#101010" stroke-width="2"/>
<polyline points="578.4,826.0 586.8,845.2" fill="none" stroke="#101010" stroke-width="2"/>
<text x="612.0" y="826.0" font-size="12" font-family="'Microsoft JhengHei','PingFang TC','Noto Sans CJK TC','Heiti TC',sans-serif" text-anchor="middle" dominant-baseline="middle" fill="#202020">I(R+8)</text>
<polyline points="670.8,806.8 738.0,806.8" fill="none" stroke="#101010" stroke-width="2"/>
<polyline points="670.8,845.2 738.0,845.2" fill="none" stroke="#101010" stroke-width="2"/>
<polyline points="654.0,806.8 662.4,826.0" fill="none" stroke="#101010" stroke-width="2"/>
<polyline points="654.0,845.2 662.4,826.0" fill="none" stroke="#101010" stroke-width="2"/>
<polyline points="662.4,826.0 670.8,806.8" fill="none" stroke="#101010" stroke-width="2"/>
<polyline points="662.4,826.0 670.8,845.2" fill="none" stroke="#101010" stroke-width="2"/>
<text x="696.0" y="826.0" font-size="12" font-family="'Microsoft JhengHei','PingFang TC','Noto Sans CJK TC','Heiti TC',sans-serif" text-anchor="middle" dominant-baseline="middle" fill="#202020">I(R+12)</text>
<polyline points="754.8,806.8 813.6,806.8" fill="none" stroke="#101010" stroke-width="2"/>
<polyline points="754.8,845.2 813.6,845.2" fill="none" stroke="#101010" stroke-width="2"/>
<polyline points="738.0,806.8 746.4,826.0" fill="none" stroke="#101010" stroke-width="2"/>
<polyline points="738.0,845.2 746.4,826.0" fill="none" stroke="#101010" stroke-width="2"/>
<polyline points="746.4,826.0 754.8,806.8" fill="none" stroke="#101010" stroke-width="2"/>
<polyline points="746.4,826.0 754.8,845.2" fill="none" stroke="#101010" stroke-width="2"/>
<polyline points="813.6,806.8 822.0,826.0" fill="none" stroke="#101010" stroke-width="2"/>
<polyline points="813.6,845.2 822.0,826.0" fill="none" stroke="#101010" stroke-width="2"/>
<text x="780.0" y="826.0" font-size="12" font-family="'Microsoft JhengHei','PingFang TC','Noto Sans CJK TC','Heiti TC',sans-serif" text-anchor="middle" dominant-baseline="middle" fill="#202020">I(R+16)</text>
<rect x="0.0" y="858.0" width="150.0" height="64.0" fill="#FBFBF6" stroke="#C8C8C8" stroke-width="1"/>
<text x="24.0" y="890.0" font-size="12" font-family="'Microsoft JhengHei','PingFang TC','Noto Sans CJK TC','Heiti TC',sans-serif" text-anchor="start" dominant-baseline="middle" fill="#202020" font-weight="bold">RREADY</text>
<polyline points="150.0,922.0 822.0,922.0" fill="none" stroke="#C8C8C8" stroke-width="1"/>
<polyline points="150.0,870.8 234.0,870.8" fill="none" stroke="#101010" stroke-width="2"/>
<polyline points="234.0,870.8 318.0,870.8" fill="none" stroke="#101010" stroke-width="2"/>
<polyline points="318.0,870.8 402.0,870.8" fill="none" stroke="#101010" stroke-width="2"/>
<polyline points="402.0,870.8 486.0,870.8" fill="none" stroke="#101010" stroke-width="2"/>
<polyline points="486.0,870.8 570.0,870.8" fill="none" stroke="#101010" stroke-width="2"/>
<polyline points="570.0,870.8 654.0,870.8" fill="none" stroke="#101010" stroke-width="2"/>
<polyline points="654.0,870.8 738.0,870.8" fill="none" stroke="#101010" stroke-width="2"/>
<polyline points="738.0,870.8 822.0,870.8" fill="none" stroke="#101010" stroke-width="2"/>
<rect x="0.0" y="922.0" width="150.0" height="64.0" fill="#FBFBF6" stroke="#C8C8C8" stroke-width="1"/>
<text x="8.0" y="954.0" font-size="12" font-family="'Microsoft JhengHei','PingFang TC','Noto Sans CJK TC','Heiti TC',sans-serif" text-anchor="start" dominant-baseline="middle" fill="#202020" font-weight="bold">discard</text>
<polyline points="150.0,986.0 822.0,986.0" fill="none" stroke="#C8C8C8" stroke-width="1"/>
<polyline points="150.0,973.2 234.0,973.2" fill="none" stroke="#101010" stroke-width="2"/>
<polyline points="234.0,973.2 318.0,973.2" fill="none" stroke="#101010" stroke-width="2"/>
<polyline points="318.0,973.2 334.8,934.8" fill="none" stroke="#101010" stroke-width="2"/>
<polyline points="334.8,934.8 402.0,934.8" fill="none" stroke="#101010" stroke-width="2"/>
<polyline points="402.0,934.8 418.8,973.2" fill="none" stroke="#101010" stroke-width="2"/>
<polyline points="418.8,973.2 486.0,973.2" fill="none" stroke="#101010" stroke-width="2"/>
<polyline points="486.0,973.2 570.0,973.2" fill="none" stroke="#101010" stroke-width="2"/>
<polyline points="570.0,973.2 654.0,973.2" fill="none" stroke="#101010" stroke-width="2"/>
<polyline points="654.0,973.2 738.0,973.2" fill="none" stroke="#101010" stroke-width="2"/>
<polyline points="738.0,973.2 822.0,973.2" fill="none" stroke="#101010" stroke-width="2"/>
<rect x="0.0" y="986.0" width="150.0" height="64.0" fill="#ECE9D8" stroke="#ACA899" stroke-width="1"/>
<polygon points="6.8,1015.2 15.6,1015.2 11.2,1021.6" fill="#202020" stroke="#202020"/>
<text x="21.6" y="1018.0" font-size="12" font-family="'Microsoft JhengHei','PingFang TC','Noto Sans CJK TC','Heiti TC',sans-serif" text-anchor="start" dominant-baseline="middle" fill="#202020" font-weight="bold">IF2ID</text>
<rect x="150.0" y="986.0" width="672.0" height="64.0" fill="#ECE9D8"/>
<polyline points="150.0,1050.0 822.0,1050.0" fill="none" stroke="#C8C8C8" stroke-width="1"/>
<rect x="0.0" y="1050.0" width="150.0" height="64.0" fill="#FBFBF6" stroke="#C8C8C8" stroke-width="1"/>
<text x="24.0" y="1082.0" font-size="12" font-family="'Microsoft JhengHei','PingFang TC','Noto Sans CJK TC','Heiti TC',sans-serif" text-anchor="start" dominant-baseline="middle" fill="#202020" font-weight="bold">if2id_vld</text>
<polyline points="150.0,1114.0 822.0,1114.0" fill="none" stroke="#C8C8C8" stroke-width="1"/>
<polyline points="150.0,1101.2 234.0,1101.2" fill="none" stroke="#101010" stroke-width="2"/>
<polyline points="234.0,1101.2 250.8,1062.8" fill="none" stroke="#101010" stroke-width="2"/>
<polyline points="250.8,1062.8 318.0,1062.8" fill="none" stroke="#101010" stroke-width="2"/>
<polyline points="318.0,1062.8 334.8,1101.2" fill="none" stroke="#101010" stroke-width="2"/>
<polyline points="334.8,1101.2 402.0,1101.2" fill="none" stroke="#101010" stroke-width="2"/>
<polyline points="402.0,1101.2 418.8,1062.8" fill="none" stroke="#101010" stroke-width="2"/>
<polyline points="418.8,1062.8 486.0,1062.8" fill="none" stroke="#101010" stroke-width="2"/>
<polyline points="486.0,1062.8 570.0,1062.8" fill="none" stroke="#101010" stroke-width="2"/>
<polyline points="570.0,1062.8 654.0,1062.8" fill="none" stroke="#101010" stroke-width="2"/>
<polyline points="654.0,1062.8 738.0,1062.8" fill="none" stroke="#101010" stroke-width="2"/>
<polyline points="738.0,1062.8 822.0,1062.8" fill="none" stroke="#101010" stroke-width="2"/>
<rect x="0.0" y="1114.0" width="150.0" height="64.0" fill="#FBFBF6" stroke="#C8C8C8" stroke-width="1"/>
<text x="24.0" y="1146.0" font-size="12" font-family="'Microsoft JhengHei','PingFang TC','Noto Sans CJK TC','Heiti TC',sans-serif" text-anchor="start" dominant-baseline="middle" fill="#202020" font-weight="bold">if2id_pc</text>
<polyline points="150.0,1178.0 822.0,1178.0" fill="none" stroke="#C8C8C8" stroke-width="1"/>
<polygon points="150.0,1146.0 158.4,1126.8 234.0,1126.8 234.0,1165.2 158.4,1165.2" fill="#E79B9B"/>
<polyline points="158.4,1158.2 165.4,1165.2" fill="none" stroke="#A83232" stroke-width="1"/>
<polyline points="158.4,1151.2 172.4,1165.2" fill="none" stroke="#A83232" stroke-width="1"/>
<polyline points="158.4,1144.2 179.4,1165.2" fill="none" stroke="#A83232" stroke-width="1"/>
<polyline points="158.4,1137.2 186.4,1165.2" fill="none" stroke="#A83232" stroke-width="1"/>
<polyline points="158.4,1130.2 193.4,1165.2" fill="none" stroke="#A83232" stroke-width="1"/>
<polyline points="162.0,1126.8 200.4,1165.2" fill="none" stroke="#A83232" stroke-width="1"/>
<polyline points="169.0,1126.8 207.4,1165.2" fill="none" stroke="#A83232" stroke-width="1"/>
<polyline points="176.0,1126.8 214.4,1165.2" fill="none" stroke="#A83232" stroke-width="1"/>
<polyline points="183.0,1126.8 221.4,1165.2" fill="none" stroke="#A83232" stroke-width="1"/>
<polyline points="190.0,1126.8 228.4,1165.2" fill="none" stroke="#A83232" stroke-width="1"/>
<polyline points="197.0,1126.8 234.0,1163.8" fill="none" stroke="#A83232" stroke-width="1"/>
<polyline points="204.0,1126.8 234.0,1156.8" fill="none" stroke="#A83232" stroke-width="1"/>
<polyline points="211.0,1126.8 234.0,1149.8" fill="none" stroke="#A83232" stroke-width="1"/>
<polyline points="218.0,1126.8 234.0,1142.8" fill="none" stroke="#A83232" stroke-width="1"/>
<polyline points="225.0,1126.8 234.0,1135.8" fill="none" stroke="#A83232" stroke-width="1"/>
<polyline points="232.0,1126.8 234.0,1128.8" fill="none" stroke="#A83232" stroke-width="1"/>
<polyline points="158.4,1126.8 234.0,1126.8" fill="none" stroke="#101010" stroke-width="2"/>
<polyline points="158.4,1165.2 234.0,1165.2" fill="none" stroke="#101010" stroke-width="2"/>
<polyline points="150.0,1146.0 158.4,1126.8" fill="none" stroke="#101010" stroke-width="2"/>
<polyline points="150.0,1146.0 158.4,1165.2" fill="none" stroke="#101010" stroke-width="2"/>
<polyline points="250.8,1126.8 318.0,1126.8" fill="none" stroke="#101010" stroke-width="2"/>
<polyline points="250.8,1165.2 318.0,1165.2" fill="none" stroke="#101010" stroke-width="2"/>
<polyline points="234.0,1126.8 242.4,1146.0" fill="none" stroke="#101010" stroke-width="2"/>
<polyline points="234.0,1165.2 242.4,1146.0" fill="none" stroke="#101010" stroke-width="2"/>
<polyline points="242.4,1146.0 250.8,1126.8" fill="none" stroke="#101010" stroke-width="2"/>
<polyline points="242.4,1146.0 250.8,1165.2" fill="none" stroke="#101010" stroke-width="2"/>
<text x="276.0" y="1146.0" font-size="12" font-family="'Microsoft JhengHei','PingFang TC','Noto Sans CJK TC','Heiti TC',sans-serif" text-anchor="middle" dominant-baseline="middle" fill="#202020">X1</text>
<polygon points="318.0,1126.8 402.0,1126.8 402.0,1165.2 318.0,1165.2" fill="#E79B9B"/>
<polyline points="334.8,1158.2 341.8,1165.2" fill="none" stroke="#A83232" stroke-width="1"/>
<polyline points="334.8,1151.2 348.8,1165.2" fill="none" stroke="#A83232" stroke-width="1"/>
<polyline points="334.8,1144.2 355.8,1165.2" fill="none" stroke="#A83232" stroke-width="1"/>
<polyline points="334.8,1137.2 362.8,1165.2" fill="none" stroke="#A83232" stroke-width="1"/>
<polyline points="334.8,1130.2 369.8,1165.2" fill="none" stroke="#A83232" stroke-width="1"/>
<polyline points="338.4,1126.8 376.8,1165.2" fill="none" stroke="#A83232" stroke-width="1"/>
<polyline points="345.4,1126.8 383.8,1165.2" fill="none" stroke="#A83232" stroke-width="1"/>
<polyline points="352.4,1126.8 390.8,1165.2" fill="none" stroke="#A83232" stroke-width="1"/>
<polyline points="359.4,1126.8 397.8,1165.2" fill="none" stroke="#A83232" stroke-width="1"/>
<polyline points="366.4,1126.8 402.0,1162.4" fill="none" stroke="#A83232" stroke-width="1"/>
<polyline points="373.4,1126.8 402.0,1155.4" fill="none" stroke="#A83232" stroke-width="1"/>
<polyline points="380.4,1126.8 402.0,1148.4" fill="none" stroke="#A83232" stroke-width="1"/>
<polyline points="387.4,1126.8 402.0,1141.4" fill="none" stroke="#A83232" stroke-width="1"/>
<polyline points="394.4,1126.8 402.0,1134.4" fill="none" stroke="#A83232" stroke-width="1"/>
<polyline points="401.4,1126.8 402.0,1127.4" fill="none" stroke="#A83232" stroke-width="1"/>
<polyline points="334.8,1126.8 402.0,1126.8" fill="none" stroke="#101010" stroke-width="2"/>
<polyline points="334.8,1165.2 402.0,1165.2" fill="none" stroke="#101010" stroke-width="2"/>
<polyline points="318.0,1126.8 326.4,1146.0" fill="none" stroke="#101010" stroke-width="2"/>
<polyline points="318.0,1165.2 326.4,1146.0" fill="none" stroke="#101010" stroke-width="2"/>
<polyline points="326.4,1146.0 334.8,1126.8" fill="none" stroke="#101010" stroke-width="2"/>
<polyline points="326.4,1146.0 334.8,1165.2" fill="none" stroke="#101010" stroke-width="2"/>
<polyline points="418.8,1126.8 486.0,1126.8" fill="none" stroke="#101010" stroke-width="2"/>
<polyline points="418.8,1165.2 486.0,1165.2" fill="none" stroke="#101010" stroke-width="2"/>
<polyline points="402.0,1126.8 410.4,1146.0" fill="none" stroke="#101010" stroke-width="2"/>
<polyline points="402.0,1165.2 410.4,1146.0" fill="none" stroke="#101010" stroke-width="2"/>
<polyline points="410.4,1146.0 418.8,1126.8" fill="none" stroke="#101010" stroke-width="2"/>
<polyline points="410.4,1146.0 418.8,1165.2" fill="none" stroke="#101010" stroke-width="2"/>
<text x="444.0" y="1146.0" font-size="12" font-family="'Microsoft JhengHei','PingFang TC','Noto Sans CJK TC','Heiti TC',sans-serif" text-anchor="middle" dominant-baseline="middle" fill="#202020">Rpc</text>
<polyline points="502.8,1126.8 570.0,1126.8" fill="none" stroke="#101010" stroke-width="2"/>
<polyline points="502.8,1165.2 570.0,1165.2" fill="none" stroke="#101010" stroke-width="2"/>
<polyline points="486.0,1126.8 494.4,1146.0" fill="none" stroke="#101010" stroke-width="2"/>
<polyline points="486.0,1165.2 494.4,1146.0" fill="none" stroke="#101010" stroke-width="2"/>
<polyline points="494.4,1146.0 502.8,1126.8" fill="none" stroke="#101010" stroke-width="2"/>
<polyline points="494.4,1146.0 502.8,1165.2" fill="none" stroke="#101010" stroke-width="2"/>
<text x="528.0" y="1146.0" font-size="12" font-family="'Microsoft JhengHei','PingFang TC','Noto Sans CJK TC','Heiti TC',sans-serif" text-anchor="middle" dominant-baseline="middle" fill="#202020">R+4</text>
<polyline points="586.8,1126.8 654.0,1126.8" fill="none" stroke="#101010" stroke-width="2"/>
<polyline points="586.8,1165.2 654.0,1165.2" fill="none" stroke="#101010" stroke-width="2"/>
<polyline points="570.0,1126.8 578.4,1146.0" fill="none" stroke="#101010" stroke-width="2"/>
<polyline points="570.0,1165.2 578.4,1146.0" fill="none" stroke="#101010" stroke-width="2"/>
<polyline points="578.4,1146.0 586.8,1126.8" fill="none" stroke="#101010" stroke-width="2"/>
<polyline points="578.4,1146.0 586.8,1165.2" fill="none" stroke="#101010" stroke-width="2"/>
<text x="612.0" y="1146.0" font-size="12" font-family="'Microsoft JhengHei','PingFang TC','Noto Sans CJK TC','Heiti TC',sans-serif" text-anchor="middle" dominant-baseline="middle" fill="#202020">R+8</text>
<polyline points="670.8,1126.8 738.0,1126.8" fill="none" stroke="#101010" stroke-width="2"/>
<polyline points="670.8,1165.2 738.0,1165.2" fill="none" stroke="#101010" stroke-width="2"/>
<polyline points="654.0,1126.8 662.4,1146.0" fill="none" stroke="#101010" stroke-width="2"/>
<polyline points="654.0,1165.2 662.4,1146.0" fill="none" stroke="#101010" stroke-width="2"/>
<polyline points="662.4,1146.0 670.8,1126.8" fill="none" stroke="#101010" stroke-width="2"/>
<polyline points="662.4,1146.0 670.8,1165.2" fill="none" stroke="#101010" stroke-width="2"/>
<text x="696.0" y="1146.0" font-size="12" font-family="'Microsoft JhengHei','PingFang TC','Noto Sans CJK TC','Heiti TC',sans-serif" text-anchor="middle" dominant-baseline="middle" fill="#202020">R+12</text>
<polyline points="754.8,1126.8 813.6,1126.8" fill="none" stroke="#101010" stroke-width="2"/>
<polyline points="754.8,1165.2 813.6,1165.2" fill="none" stroke="#101010" stroke-width="2"/>
<polyline points="738.0,1126.8 746.4,1146.0" fill="none" stroke="#101010" stroke-width="2"/>
<polyline points="738.0,1165.2 746.4,1146.0" fill="none" stroke="#101010" stroke-width="2"/>
<polyline points="746.4,1146.0 754.8,1126.8" fill="none" stroke="#101010" stroke-width="2"/>
<polyline points="746.4,1146.0 754.8,1165.2" fill="none" stroke="#101010" stroke-width="2"/>
<polyline points="813.6,1126.8 822.0,1146.0" fill="none" stroke="#101010" stroke-width="2"/>
<polyline points="813.6,1165.2 822.0,1146.0" fill="none" stroke="#101010" stroke-width="2"/>
<text x="780.0" y="1146.0" font-size="12" font-family="'Microsoft JhengHei','PingFang TC','Noto Sans CJK TC','Heiti TC',sans-serif" text-anchor="middle" dominant-baseline="middle" fill="#202020">R+16</text>
<polyline points="360.0,186.0 360.0,570.0" fill="none" stroke="#6A3FB5" stroke-width="2"/>
<polygon points="360.0,570.0 355.0,559.0 365.0,559.0" fill="#6A3FB5" stroke="#6A3FB5"/>
<text x="360.0" y="370.0" font-size="12" font-family="'Microsoft JhengHei','PingFang TC','Noto Sans CJK TC','Heiti TC',sans-serif" text-anchor="middle" dominant-baseline="middle" fill="#6A3FB5">steer</text>
<polyline points="360.0,954.0 360.0,826.0" fill="none" stroke="#6A3FB5" stroke-width="2"/>
<polygon points="360.0,826.0 365.0,837.0 355.0,837.0" fill="#6A3FB5" stroke="#6A3FB5"/>
<text x="360.0" y="882.0" font-size="12" font-family="'Microsoft JhengHei','PingFang TC','Noto Sans CJK TC','Heiti TC',sans-serif" text-anchor="middle" dominant-baseline="middle" fill="#6A3FB5">drop</text>
<ellipse cx="360.0" cy="186.0" rx="4.0" ry="4.0" fill="#FFFFFF" stroke="#6A3FB5" stroke-width="2"/>
<text x="360.0" y="176.0" font-size="12" font-family="'Microsoft JhengHei','PingFang TC','Noto Sans CJK TC','Heiti TC',sans-serif" text-anchor="middle" dominant-baseline="middle" fill="#6A3FB5" font-weight="bold">a</text>
<ellipse cx="360.0" cy="570.0" rx="4.0" ry="4.0" fill="#FFFFFF" stroke="#6A3FB5" stroke-width="2"/>
<text x="360.0" y="560.0" font-size="12" font-family="'Microsoft JhengHei','PingFang TC','Noto Sans CJK TC','Heiti TC',sans-serif" text-anchor="middle" dominant-baseline="middle" fill="#6A3FB5" font-weight="bold">b</text>
<ellipse cx="360.0" cy="954.0" rx="4.0" ry="4.0" fill="#FFFFFF" stroke="#6A3FB5" stroke-width="2"/>
<text x="360.0" y="944.0" font-size="12" font-family="'Microsoft JhengHei','PingFang TC','Noto Sans CJK TC','Heiti TC',sans-serif" text-anchor="middle" dominant-baseline="middle" fill="#6A3FB5" font-weight="bold">c</text>
<ellipse cx="360.0" cy="826.0" rx="4.0" ry="4.0" fill="#FFFFFF" stroke="#6A3FB5" stroke-width="2"/>
<text x="360.0" y="816.0" font-size="12" font-family="'Microsoft JhengHei','PingFang TC','Noto Sans CJK TC','Heiti TC',sans-serif" text-anchor="middle" dominant-baseline="middle" fill="#6A3FB5" font-weight="bold">d</text>
</svg>
